<?xml version="1.0" encoding="UTF-8"?> <svg xmlns="http://www.w3.org/2000/svg" viewBox="0 0 1000 157.66"><defs><style>.cls-1{fill:#e7cb1b;}.cls-2{fill:#4a4947;}</style></defs><title>technocamps_core_logo_noBlurb_noTail_forLightBG_yellowGrey</title><g id="Layer_2" data-name="Layer 2"><g id="Layer_1-2" data-name="Layer 1"><path class="cls-1" d="M59.9,122.71c-7.84.47-37,.35-46.16-.36S0,115.81,0,104.87V0H12.84A11.28,11.28,0,0,1,21,3.56a11.73,11.73,0,0,1,3.57,8.57v16H60.89v5a11.54,11.54,0,0,1-3.57,8.73,12,12,0,0,1-8.56,3.39H24.61V98.1q0,6.06,7.13,6.06H59.9v18.55"></path><path class="cls-1" d="M127.46,93.46H145.3q-3.93,15-15,22.83-11.05,8.2-27.82,8.2-20.34,0-31.75-13.19Q59.34,98.45,59.34,74.55q0-22.81,11-35.67,11.42-13.2,31.74-13.2,21.41,0,33.19,12.84,11.4,13.21,11.41,36.75v3.92a6,6,0,0,1-.36,2.49H84.66Q85,92.75,90,98.1q4.63,5.7,13.91,5.7a20.29,20.29,0,0,0,10.35-2.49,5,5,0,0,0,2-1.26l2-2a7.78,7.78,0,0,1,2.67-2.85,10.58,10.58,0,0,1,6.6-1.79M84.66,65.63h36.39c-.49-6.42-2.14-11.17-5-14.27q-4.64-5-13.2-5a17.42,17.42,0,0,0-12.84,5Q85,56.37,84.66,65.63Z"></path><path class="cls-1" d="M216.65,93.46h17.83q-3.93,15-15,22.83-11.06,8.2-27.83,8.2-20.32,0-31.74-13.19Q148.5,98.45,148.51,74.55q0-22.81,11.06-35.67,11.42-13.2,31.75-13.2,21.41,0,33.17,12.84a49.19,49.19,0,0,1,9.28,18.19h-25a21.35,21.35,0,0,0-3.57-5.35q-4.64-5-13.19-5a17.42,17.42,0,0,0-12.85,5q-6.42,7.16-6.42,23.55t6.42,23.19q4.63,5.7,13.91,5.7a20.2,20.2,0,0,0,10.34-2.49,5,5,0,0,0,2-1.26l2-2a15.47,15.47,0,0,1,2.85-2.85c1.43-1.2,3.57-1.79,6.43-1.79"></path><path class="cls-1" d="M298,54.57a17,17,0,0,0-14.62-7.49q-10,0-15.33,7.14t-5.35,19.62v48.87H238.4V0h12.13a11.7,11.7,0,0,1,8.56,3.56,11.7,11.7,0,0,1,3.58,8.57V40.3a28.34,28.34,0,0,1,18.18-13.55,36.31,36.31,0,0,1,22.48,1.43A40.25,40.25,0,0,1,320.1,41.74q6.76,9.27,6.77,25.68v55.29H303V73.48a50.5,50.5,0,0,0-.89-9.81,24.7,24.7,0,0,0-4.11-9.1"></path><path class="cls-1" d="M413.91,122.71H401.43a11.63,11.63,0,0,1-12.14-12.13V62.07q0-8.57-5.16-12.49a18.72,18.72,0,0,0-11.6-3.92,18,18,0,0,0-11.42,3.92q-5,3.91-5,12.49v60.64h-25V67.06q0-24.26,12.67-32.46a55.39,55.39,0,0,1,28-8.92,53.82,53.82,0,0,1,28.9,8.2q13.18,8.22,13.19,33.18v55.65"></path><path class="cls-1" d="M429.61,114.14a35.15,35.15,0,0,1-10.7-17.29,79.24,79.24,0,0,1-3.22-22.65,71.55,71.55,0,0,1,2.68-19.27,39.75,39.75,0,0,1,8.38-16,37,37,0,0,1,23.9-12.66q14.63-2,26.4,2.32a36.33,36.33,0,0,1,20,18.54q6.08,11.78,6.07,27.47a68,68,0,0,1-2.5,19.62,50.08,50.08,0,0,1-6.42,13.91q-8.55,11.78-21.75,14.63a48.51,48.51,0,0,1-23.73.53q-12-2.67-19.08-9.1m17.12-62.78q-7.5,8.22-6.78,24.44T446,98.45q2.13,2.86,7.48,4.82a17.12,17.12,0,0,0,10.89.35q5.52-1.59,9.8-8t4.64-20.69q0-12.84-4.1-19.27c-2.74-4.28-5.88-7-9.45-8.19a17.25,17.25,0,0,0-10.7-.19C451,48.33,448.39,49.71,446.73,51.36Z"></path><path class="cls-2" d="M573,93.46h17.83q-3.93,15-15,22.83-11.07,8.2-27.82,8.2-20.34,0-31.75-13.19-11.41-12.85-11.42-36.75,0-22.81,11.06-35.67,11.42-13.2,31.75-13.2,21.41,0,33.17,12.84a49,49,0,0,1,9.28,18.19h-25a21.63,21.63,0,0,0-3.56-5.35c-3.11-3.32-7.5-5-13.21-5a17.42,17.42,0,0,0-12.84,5q-6.42,7.16-6.42,23.55t6.42,23.19c3.08,3.8,7.73,5.7,13.91,5.7a20.26,20.26,0,0,0,10.35-2.49,5.06,5.06,0,0,0,2-1.26l2-2a15.14,15.14,0,0,1,2.85-2.85c1.42-1.2,3.56-1.79,6.42-1.79"></path><path class="cls-2" d="M655.41,118.79a44,44,0,0,1-15.87,4.81,143.37,143.37,0,0,1-14.81.89,37.33,37.33,0,0,1-22.48-7q-9.62-6.94-9.62-23,0-15,8.73-21.41t22.29-8.56a21.47,21.47,0,0,0,4.29-.53,57.46,57.46,0,0,1,5.71-.9q15.69-2.13,15.69-9.27,0-5.34-5.53-7a36.28,36.28,0,0,0-10.16-1.61,26,26,0,0,0-8.92,1.43A9.73,9.73,0,0,0,619,52.08h-23.9a27.53,27.53,0,0,1,10-18.2q9.63-8.19,27.47-8.2,20,0,30,6.78,10.35,7.14,10.35,20V84.9q0,14.26-5.18,22.29a31.65,31.65,0,0,1-12.3,11.6m-5.7-43.88a67.54,67.54,0,0,1-13.92,4.64l-8.21,1.78c-4.27,1.19-7.37,2.74-9.27,4.64a14.49,14.49,0,0,0-2.5,7.85,11.58,11.58,0,0,0,3.21,8.56q3.21,2.87,9.28,2.86,10,0,15.69-5.72t5.72-15.69Z"></path><path class="cls-2" d="M759.21,122.71H734.6V62.07q0-8.57-5.18-12.49a18.67,18.67,0,0,0-11.59-3.92,17.93,17.93,0,0,0-11.41,3.92q-5,3.91-5,12.49v60.64h-25V67.06q0-24.26,12.66-32.46a55.45,55.45,0,0,1,28-8.92,72.27,72.27,0,0,1,16.06,1.79,33.71,33.71,0,0,1,14.26,7.13A31.51,31.51,0,0,1,760.1,28a70.79,70.79,0,0,1,15.17-2.32,53.76,53.76,0,0,1,28.89,8.2q13.19,8.22,13.2,33.18v55.65H804.88a11.63,11.63,0,0,1-12.14-12.13V62.07q0-8.57-5.17-12.49a19.09,19.09,0,0,0-23.18,0q-5.17,3.91-5.18,12.49v60.64"></path><path class="cls-2" d="M848.39,145.54a12.15,12.15,0,0,1-12.12,12.12H824.13V68.84q0-25,14.63-34.07a59,59,0,0,1,31.75-9.09,51.3,51.3,0,0,1,18,3.39A33.65,33.65,0,0,1,903,38.88q10.69,13.92,10.7,35.67,0,22.47-10.7,36.39-10.71,13.56-27.46,13.55a36.26,36.26,0,0,1-15.7-3.2,26.89,26.89,0,0,1-11.42-11.06v35.31m40.67-69.92q0-13.91-5.35-21.4t-15.34-7.49q-9.63,0-15,7.49-5,6.78-5,21.4,0,13.56,5.35,20.34,5.35,7.49,15.34,7.48A17,17,0,0,0,883.71,96Q889.05,88.46,889.06,75.62Z"></path><path class="cls-2" d="M915.81,91.32h24.26q.34,7.14,5.35,10.7c3.57,2.37,8.32,3.57,14.27,3.57a23,23,0,0,0,11.06-2.5c2.85-1.67,4.28-3.92,4.28-6.78q0-6.42-15-9.63a68.48,68.48,0,0,1-9.63-2.13q-18.92-4.65-25.32-11.07Q917.94,67,918,56.36A28.41,28.41,0,0,1,928.3,33.88q10.69-8.19,27.82-8.2,18.54,0,29.6,8.2,10.37,8.92,11.06,23.19H981.45A11.32,11.32,0,0,1,971.1,51l-2.85-2.85q-4.29-3.22-11.78-3.22-7.12,0-10.7,2.14a7.21,7.21,0,0,0-3.21,6.42q0,5.72,18.55,9.63a33.33,33.33,0,0,0,3.75,1.07,13.35,13.35,0,0,0,3,.36q18.2,4.65,25.33,10.71,6.78,6.42,6.78,17.12,0,15.7-11.42,24.25-10.7,7.85-32.11,7.85-20.33,0-30.32-8.2-10.35-8.21-10.34-23.9V91.32"></path></g></g></svg> 